<?xml version="1.0" standalone="no"?>
<!DOCTYPE svg PUBLIC "-//W3C//DTD SVG 20010904//EN"
 "http://www.w3.org/TR/2001/REC-SVG-20010904/DTD/svg10.dtd">
<svg version="1.0" xmlns="http://www.w3.org/2000/svg"
 width="1067.000000pt" height="1067.000000pt" viewBox="0 0 1067.000000 1067.000000"
 preserveAspectRatio="xMidYMid meet">
<metadata>
Created by potrace 1.11, written by Peter Selinger 2001-2013
</metadata>
<g transform="translate(0.000000,1067.000000) scale(0.100000,-0.100000)"
fill="#000000" stroke="none">
<path d="M5147 10544 c-1 -1 -63 -5 -137 -8 -74 -4 -148 -9 -165 -11 -16 -2
-57 -6 -90 -9 -120 -12 -392 -53 -405 -61 -4 -2 -29 -7 -56 -11 -27 -3 -52 -8
-55 -10 -3 -2 -21 -6 -40 -9 -19 -3 -88 -19 -154 -36 -644 -162 -1250 -446
-1790 -838 -98 -71 -274 -209 -318 -250 -26 -24 -35 -26 -125 -27 l-97 -1 -5
-91 -5 -91 -116 -118 c-378 -385 -686 -816 -928 -1299 -131 -263 -220 -479
-304 -739 -34 -106 -80 -264 -91 -315 -48 -211 -76 -341 -80 -370 -3 -19 -10
-60 -15 -90 -11 -60 -16 -100 -31 -235 -6 -49 -13 -106 -15 -125 -23 -178 -23
-737 0 -925 2 -16 6 -61 10 -98 3 -37 8 -76 10 -85 1 -9 6 -42 9 -72 4 -30 9
-67 11 -83 20 -119 29 -165 47 -257 56 -290 187 -714 297 -965 10 -22 26 -60
37 -85 37 -91 233 -468 297 -574 37 -59 67 -110 67 -112 0 -9 144 -213 245
-349 135 -180 269 -336 433 -505 l121 -125 1 -87 0 -88 96 0 97 0 46 -37 c25
-21 55 -46 66 -56 84 -78 450 -335 640 -449 198 -119 502 -269 728 -359 254
-102 615 -214 789 -244 17 -3 34 -7 37 -9 8 -5 277 -55 332 -61 24 -3 55 -7
69 -10 14 -2 50 -7 80 -10 30 -4 66 -8 80 -10 32 -4 167 -16 245 -21 75 -4
529 -4 610 0 68 4 193 15 245 21 19 2 59 7 89 10 30 4 61 8 70 10 9 1 41 6 71
10 55 7 74 10 120 20 14 2 41 7 60 10 235 38 775 192 955 274 11 5 76 32 145
61 166 70 473 227 640 329 116 71 380 249 437 294 10 9 56 46 103 83 47 37
106 85 131 106 l45 38 97 0 97 0 0 88 0 87 103 105 c639 654 1081 1421 1317
2285 43 159 108 458 124 570 7 52 33 264 41 335 23 212 23 720 1 932 -15 136
-28 246 -31 268 -55 350 -118 619 -206 885 -29 88 -54 162 -54 165 -3 9 -17
44 -30 75 -7 17 -16 41 -20 55 -7 23 -15 43 -60 145 -8 17 -22 50 -33 75 -104
236 -268 535 -415 755 -58 87 -233 327 -275 376 -141 170 -228 266 -341 382
l-135 137 24 75 c13 41 21 78 17 81 -3 3 -54 7 -114 8 l-108 1 -130 105 c-172
139 -172 139 -305 231 -450 314 -931 547 -1475 715 -49 15 -94 29 -100 30 -5
1 -64 16 -130 32 -110 28 -295 68 -355 78 -14 2 -36 6 -50 9 -14 2 -43 7 -65
10 -22 3 -51 7 -65 9 -14 3 -50 7 -81 11 -31 3 -65 7 -75 9 -21 4 -123 13
-264 22 -85 6 -488 13 -493 8z"/>
</g>
</svg>
